<svg version="1.1" id="Layer_1" xmlns="http://www.w3.org/2000/svg" xmlns:xlink="http://www.w3.org/1999/xlink" x="0px" y="0px"
	 width="100%" viewBox="0 0 1024 1024" enable-background="new 0 0 1024 1024" xml:space="preserve">
<path fill="#000000" opacity="1.000000" stroke="none" 
	d="
M672.000000,1025.000000 
	C448.000000,1025.000000 224.500000,1025.000000 1.000000,1025.000000 
	C1.000000,683.666687 1.000000,342.333344 1.000000,1.000000 
	C342.333344,1.000000 683.666687,1.000000 1025.000000,1.000000 
	C1025.000000,342.333344 1025.000000,683.666687 1025.000000,1025.000000 
	C907.500000,1025.000000 790.000000,1025.000000 672.000000,1025.000000 
M526.678101,584.668762 
	C526.670837,584.494995 526.663513,584.321167 527.174866,583.798279 
	C530.370728,579.196716 533.566650,574.595154 537.113770,569.759644 
	C537.113770,569.759644 537.104126,569.337646 537.749634,569.130432 
	C538.176819,568.410950 538.604004,567.691467 539.206055,566.784546 
	C539.206055,566.784546 539.073181,566.565308 539.689331,566.268738 
	C539.862610,565.866943 540.035889,565.465149 540.719116,564.659363 
	C541.827209,563.093689 542.935364,561.528076 544.693542,559.719543 
	C546.598450,556.787476 548.441650,553.812988 550.420959,550.932129 
	C554.563049,544.903503 558.776917,538.924255 563.443420,532.460388 
	C565.988525,528.663818 568.533569,524.867249 571.030457,520.998596 
	C571.030457,520.998596 571.042969,521.084351 571.561951,520.944458 
	C571.734497,520.644470 571.907043,520.344482 572.019653,520.073425 
	C572.019653,520.073425 572.086670,520.075684 572.738586,519.912598 
	C573.485474,518.589905 574.232361,517.267212 575.222229,515.707397 
	C575.222229,515.707397 575.106384,515.388245 575.697205,515.188110 
	C575.870178,514.829529 576.043152,514.470947 576.106689,514.123901 
	C576.106689,514.123901 576.190247,514.195496 576.771057,514.032471 
	C577.184631,513.374084 577.598145,512.715698 578.032715,512.034180 
	C578.032715,512.034180 578.053040,512.010437 578.570129,511.861084 
	C578.669373,511.569458 578.768616,511.277802 579.256165,510.436676 
	C580.914429,508.315125 582.572693,506.193573 584.632507,503.952972 
	C584.874817,503.711212 584.887695,503.457611 584.921570,502.563293 
	C585.028320,502.127563 585.135071,501.691833 585.089783,501.152252 
	C585.089783,501.152252 585.235107,501.244171 585.895264,501.094238 
	C586.358948,500.367065 586.822571,499.639923 587.895996,498.672516 
	C589.232239,496.855042 590.646362,495.089081 591.889404,493.209991 
	C594.991272,488.520966 598.015381,483.780548 601.026917,478.996368 
	C601.026917,478.996368 601.037476,479.073425 601.568359,478.961273 
	C601.732910,478.654755 601.897461,478.348236 601.999634,478.004944 
	C601.999634,478.004944 602.044495,478.062012 602.683289,477.912262 
	C602.796997,477.548096 602.910645,477.183899 603.194641,476.638672 
	C603.194641,476.638672 603.061768,476.428558 603.654175,476.183868 
	C603.804565,476.032135 603.954956,475.880402 604.668152,475.422150 
	C607.702515,471.182343 610.803223,466.988098 613.752319,462.689758 
	C616.601746,458.536621 619.294800,454.276245 622.010986,449.997955 
	C622.010986,449.997955 622.068359,450.055054 622.752563,449.927429 
	C623.456665,448.576477 624.160767,447.225525 625.120239,445.744659 
	C625.120239,445.744659 625.049744,445.467010 625.723755,445.219269 
	C626.214050,444.776703 626.799683,444.403717 627.180725,443.881409 
	C636.677917,430.862610 646.196594,417.859039 655.598328,404.771484 
	C657.583313,402.008392 659.125793,398.927429 661.020142,395.945587 
	C661.020142,395.945587 660.970947,395.798187 661.528564,395.464691 
	C664.648010,390.880371 667.767395,386.296051 671.041138,381.651642 
	C671.041138,381.651642 671.013184,381.488464 671.686951,381.236603 
	C675.224976,376.361450 679.076172,371.675110 682.175598,366.535492 
	C683.852417,363.755157 684.246216,360.201141 685.962463,356.106171 
	C686.067993,355.734222 686.173523,355.362305 686.448608,355.562653 
	C686.611023,340.596802 686.964600,325.628265 686.754700,310.667633 
	C686.718201,308.061951 684.305725,305.489532 683.099609,302.166138 
	C679.087891,292.230621 670.720947,287.121857 661.127991,285.182190 
	C651.787354,283.293488 641.988525,282.953766 632.406860,283.085907 
	C542.669922,284.323151 452.901306,280.931885 363.180389,284.918579 
	C356.727142,285.205292 350.772583,286.593597 345.647766,290.088135 
	C336.658020,296.218201 331.232391,304.696075 331.093018,316.866791 
	C331.120087,318.600800 331.147156,320.334808 330.657532,322.689941 
	C330.821747,331.108917 330.985962,339.527924 331.029083,348.826019 
	C331.079376,350.892822 331.129639,352.959595 330.919159,355.607849 
	C331.624176,357.400726 332.329193,359.193604 332.965576,361.736023 
	C333.005463,362.235779 333.045349,362.735504 332.846558,363.238647 
	C332.846558,363.238647 332.798004,363.520721 332.798004,363.520721 
	C332.798004,363.520721 333.089539,363.510254 333.544830,364.050262 
	C334.644806,365.722229 335.744751,367.394196 336.946533,369.772156 
	C341.897156,376.699585 347.827667,382.154602 357.218231,383.712433 
	C359.077942,384.173859 360.937286,385.036774 362.797394,385.038330 
	C417.269653,385.084198 471.741974,385.037445 526.214294,385.051392 
	C527.829468,385.051819 529.444458,385.545746 530.936829,386.535217 
	C528.246887,390.608368 525.556885,394.681519 522.563599,399.140991 
	C522.362488,399.398926 522.184753,399.672089 521.979065,399.955597 
	C521.979065,399.955597 521.957214,400.002350 521.328613,400.112793 
	C520.861450,401.064819 520.394287,402.016876 519.474854,403.354065 
	C518.991089,403.978333 518.507324,404.602600 517.412109,405.426392 
	C516.015930,407.637970 514.619812,409.849548 512.791443,412.459229 
	C512.556885,412.772186 512.322327,413.085114 511.485870,413.504944 
	C510.834717,414.688873 510.183563,415.872833 509.182007,417.632690 
	C508.797150,418.184753 508.412323,418.736847 507.431610,419.429138 
	C506.802124,420.636353 506.172607,421.843597 505.170654,423.653351 
	C504.153564,424.931152 503.136444,426.208954 501.558624,427.559509 
	C501.259277,428.395386 500.959900,429.231293 500.108337,430.490082 
	C499.402679,431.404663 498.697021,432.319244 497.416504,433.377960 
	C497.061615,434.259094 496.706726,435.140228 495.837799,436.497101 
	C493.788605,439.288116 491.739410,442.079132 489.137970,445.263428 
	C484.443848,452.176941 479.749756,459.090424 474.623047,466.515930 
	C468.391510,475.335266 462.159943,484.154572 455.382996,493.357483 
	C452.569214,497.566040 449.755432,501.774597 446.319946,506.238342 
	C442.458221,511.792236 438.596466,517.346130 434.073883,523.158508 
	C431.153656,527.146362 428.144318,531.072571 425.333435,535.136047 
	C420.788147,541.706726 416.373413,548.367737 411.374237,555.367981 
	C410.597473,556.585693 409.820709,557.803467 408.589020,559.410339 
	C408.347443,559.935181 408.105865,560.459961 407.710114,561.087708 
	C407.710114,561.087708 407.737061,561.270996 407.197876,561.725159 
	C402.075287,568.813354 396.952667,575.901489 391.322052,583.398438 
	C390.216034,584.988342 389.109985,586.578186 387.414948,588.353088 
	C386.915131,589.232727 386.415283,590.112427 385.391907,591.321289 
	C384.932068,592.000122 384.472229,592.678955 383.450531,593.518005 
	C382.942047,594.332703 382.433563,595.147400 381.374939,596.247986 
	C381.286865,596.845337 381.198761,597.442688 380.516357,598.344238 
	C379.331909,599.892883 378.147461,601.441528 376.398804,603.293579 
	C376.161713,603.848633 375.924622,604.403625 375.244446,605.434631 
	C366.104736,618.248779 356.965027,631.062866 347.935028,643.930298 
	C347.935028,643.930298 347.874298,643.824524 347.307526,643.986511 
	C346.945435,644.660767 346.583313,645.335022 345.617432,646.346985 
	C345.085327,647.350708 344.553223,648.354492 343.446594,649.521057 
	C342.814117,650.689819 342.181641,651.858521 341.152435,653.597046 
	C340.774658,654.177124 340.396912,654.757202 339.420258,655.517883 
	C338.941254,656.675659 338.462219,657.833374 337.366455,659.377380 
	C336.654755,661.608826 335.943024,663.840271 334.811340,666.507019 
	C334.374817,667.345581 333.938293,668.184143 333.113739,669.753662 
	C333.180054,670.839844 333.246368,671.926025 333.064819,673.751709 
	C333.118164,674.524170 333.171509,675.296631 332.800812,676.622437 
	C332.442993,678.429443 332.085205,680.236389 331.336243,682.897827 
	C331.478027,689.918884 331.619812,696.940002 331.450500,704.650940 
	C332.024475,706.744873 332.598450,708.838745 333.013580,711.786804 
	C333.389526,714.177002 333.765503,716.567261 334.229675,719.519104 
	C334.545166,719.990417 334.860657,720.461792 335.040070,721.662292 
	C335.592377,722.428406 336.144684,723.194458 336.637512,724.517761 
	C337.099518,725.241638 337.561554,725.965576 338.379944,727.269043 
	C339.014404,728.173584 339.648895,729.078125 340.352722,730.555908 
	C340.883362,731.062927 341.413971,731.569885 341.995941,732.004944 
	C341.995941,732.004944 341.923431,732.055603 342.088593,732.654663 
	C343.066589,733.315369 344.044617,733.976074 345.447357,735.216614 
	C349.319702,737.080750 353.192047,738.944885 357.454620,741.268127 
	C358.314636,741.668335 359.174683,742.068542 360.893799,742.854187 
	C461.424988,742.877686 561.956177,742.907104 662.487366,742.866516 
	C663.981689,742.865906 665.475586,741.993164 667.512878,741.551758 
	C667.976929,741.278381 668.441040,741.004944 669.628540,740.932983 
	C670.754578,740.622070 671.880676,740.311218 673.595215,739.974915 
	C674.043640,739.599365 674.492126,739.223816 675.535522,738.995728 
	C676.044189,738.707214 676.552795,738.418701 677.746155,738.095032 
	C678.663025,737.464966 679.579834,736.834961 681.092957,735.972046 
	C683.461548,733.469360 685.830078,730.966614 688.777405,728.189148 
	C689.197083,727.467285 689.616760,726.745422 690.620239,725.614563 
	C691.355713,723.390320 692.091187,721.166016 693.295044,718.560852 
	C693.698486,717.695984 694.101868,716.831177 694.869751,715.141968 
	C694.845154,712.738220 694.820618,710.334473 695.195312,707.297485 
	C697.295654,696.531128 697.264587,685.795593 694.934204,674.334717 
	C694.837646,673.560974 694.741089,672.787170 694.917664,671.328491 
	C694.705811,670.179871 694.493958,669.031250 694.229248,667.272461 
	C693.783691,666.862732 693.338135,666.453003 693.005859,665.267456 
	C692.833069,664.518555 692.660217,663.769714 692.619019,662.392578 
	C691.868347,661.336365 691.117676,660.280212 690.360474,659.083069 
	C690.360474,659.083069 690.284607,658.964050 690.306763,658.308655 
	C689.530762,657.326782 688.754700,656.344849 687.609253,654.761841 
	C684.725342,652.217163 681.841492,649.672424 678.542847,646.719788 
	C678.029663,646.479431 677.516479,646.239075 676.710266,645.440369 
	C676.117554,645.365967 675.524902,645.291565 674.473267,644.880920 
	C673.962646,644.648926 673.452026,644.416870 672.572754,643.495728 
	C671.033264,643.377747 669.493713,643.259705 667.633789,642.620911 
	C667.114868,642.350403 666.595947,642.079895 665.479492,641.201294 
	C663.653442,641.146790 661.827454,641.045044 660.001404,641.044800 
	C606.128906,641.037537 552.256470,641.037659 498.384003,641.050293 
	C495.896362,641.050903 493.408722,641.178040 490.310059,640.692078 
	C490.198883,639.662903 489.615051,638.331543 490.049866,637.651306 
	C494.337891,630.942810 498.718109,624.289612 503.226257,617.726440 
	C507.558685,611.419189 512.073242,605.237061 516.870300,598.521912 
	C516.945068,598.135803 517.019836,597.749634 517.693115,597.180359 
	C517.920959,596.847412 518.148743,596.514404 518.151672,596.146240 
	C518.151672,596.146240 518.179871,596.372070 518.769592,596.144165 
	C518.998169,595.794067 519.226807,595.443970 519.947815,594.630066 
	C521.704590,591.936340 523.461426,589.242676 525.842163,586.261047 
	C525.996887,585.852356 526.151611,585.443665 526.678101,584.668762 
M958.134827,962.864807 
	C954.362061,964.957764 950.589294,967.050720 945.939453,969.630310 
	C951.536499,972.945435 956.974060,974.980042 960.715881,978.714050 
	C964.507751,982.497864 966.623413,987.961304 969.515808,992.759888 
	C972.707947,987.876465 975.034546,982.848267 978.693665,979.132385 
	C982.355530,975.413940 987.349060,973.006897 992.728271,969.369507 
	C981.438477,965.206665 974.862732,956.785278 970.652649,946.635620 
	C966.282593,952.392944 962.489929,957.389526 958.134827,962.864807 
z"/>
<path fill="#FCFDFD" opacity="1.000000" stroke="none" 
	d="
M333.224823,676.069092 
	C333.171509,675.296631 333.118164,674.524170 333.567749,673.386230 
	C337.688416,674.166199 341.280182,675.404297 344.931915,676.428650 
	C348.017242,677.294006 351.330017,678.048096 353.497070,674.741211 
	C356.034058,670.869690 359.890198,671.114075 363.643829,671.140747 
	C369.328735,671.181091 375.029266,671.234070 380.691040,671.684998 
	C386.187561,672.122742 391.643646,673.068665 395.982849,673.641602 
	C399.223175,673.349182 401.454803,673.080078 403.694427,672.959106 
	C409.088715,672.667908 414.484741,672.330627 419.884033,672.235474 
	C423.677307,672.168518 427.871033,671.470764 431.203369,672.785217 
	C443.357758,677.579407 456.324646,673.482422 468.527771,676.825012 
	C469.056000,676.969727 469.779694,676.490845 470.387421,676.241760 
	C478.134796,673.066956 485.790222,671.196594 493.816162,675.796143 
	C496.771606,677.489746 500.301605,678.814331 502.358521,673.772949 
	C503.414032,671.185974 509.862823,671.379822 511.996887,673.385986 
	C513.264099,674.577148 515.075562,675.785706 516.708374,675.883484 
	C522.430786,676.226379 528.184692,676.222168 533.921143,676.096191 
	C538.871582,675.987366 543.812378,675.489258 548.761963,675.258728 
	C550.219543,675.190796 551.694946,675.421326 553.157715,675.561523 
	C557.850037,676.010925 562.555237,676.978271 567.228088,676.837646 
	C575.941528,676.575317 584.418274,673.767212 593.428040,675.721924 
	C597.650574,676.637939 603.379272,678.283264 606.262268,672.068359 
	C609.586060,677.073181 609.586060,677.073181 612.692993,675.401306 
	C611.782043,674.288208 610.890015,673.198303 609.997986,672.108398 
	C610.392578,671.613464 610.787231,671.118530 611.181824,670.623657 
	C612.757141,671.697266 614.332458,672.770874 615.907715,673.844482 
	C615.794800,674.376831 615.681885,674.909180 615.569031,675.441528 
	C616.865234,674.695801 618.116760,673.854065 619.467407,673.225159 
	C621.919556,672.083435 624.472900,670.065430 626.910278,670.167786 
	C639.915466,670.713684 653.091492,667.866089 665.936829,671.927307 
	C666.848450,672.215515 667.923218,671.997681 668.922119,671.998474 
	C677.496277,672.005615 686.070374,672.008972 694.644531,672.013428 
	C694.741089,672.787170 694.837646,673.560974 694.574646,675.022888 
	C694.144775,685.870728 694.061340,696.030334 694.038513,706.190063 
	C694.037231,706.769714 694.532104,707.350464 694.796021,707.930725 
	C694.820618,710.334473 694.845154,712.738220 694.400635,715.592285 
	C693.563171,717.008972 693.194885,717.975342 692.826599,718.941772 
	C692.091187,721.166016 691.355713,723.390320 689.965271,725.857239 
	C688.939758,726.887878 688.569214,727.675903 688.198608,728.463867 
	C685.830078,730.966614 683.461548,733.469360 680.397217,736.022461 
	C678.821472,736.758667 677.941406,737.444397 677.061401,738.130188 
	C676.552795,738.418701 676.044189,738.707214 675.063843,738.701355 
	C674.063660,738.938110 673.535156,739.469177 673.006714,740.000305 
	C671.880676,740.311218 670.754578,740.622070 669.115845,740.631836 
	C668.058655,740.729675 667.514221,741.128601 666.969727,741.527466 
	C665.475586,741.993164 663.981689,742.865906 662.487366,742.866516 
	C561.956177,742.907104 461.424988,742.877686 360.425262,742.377563 
	C358.992615,741.536987 358.028503,741.173035 357.064392,740.809082 
	C353.192047,738.944885 349.319702,737.080750 345.195251,734.605713 
	C343.936554,733.348450 342.929993,732.702026 341.923431,732.055603 
	C341.923431,732.055603 341.995941,732.004944 341.979248,731.728882 
	C341.402802,730.962708 340.843109,730.472717 340.283386,729.982666 
	C339.648895,729.078125 339.014404,728.173584 338.219513,726.693420 
	C337.605042,725.398743 337.151031,724.679626 336.696991,723.960571 
	C336.144684,723.194458 335.592377,722.428406 335.323639,721.129578 
	C335.118652,720.050415 334.630066,719.503906 334.141479,718.957458 
	C333.765503,716.567261 333.389526,714.177002 333.345642,711.122070 
	C333.038971,708.291931 332.400269,706.126526 331.761566,703.961060 
	C331.619812,696.940002 331.478027,689.918884 331.822144,682.356995 
	C332.613617,679.900452 332.919189,677.984802 333.224823,676.069092 
z"/>
<path fill="#F0F7FA" opacity="1.000000" stroke="none" 
	d="
M694.781128,671.671021 
	C686.070374,672.008972 677.496277,672.005615 668.922119,671.998474 
	C667.923218,671.997681 666.848450,672.215515 665.936829,671.927307 
	C653.091492,667.866089 639.915466,670.713684 626.910278,670.167786 
	C624.472900,670.065430 621.919556,672.083435 619.467407,673.225159 
	C618.116760,673.854065 616.865234,674.695801 615.569031,675.441528 
	C615.681885,674.909180 615.794800,674.376831 615.907715,673.844482 
	C614.332458,672.770874 612.757141,671.697266 611.181824,670.623657 
	C610.787231,671.118530 610.392578,671.613464 609.997986,672.108398 
	C610.890015,673.198303 611.782043,674.288208 612.692993,675.401306 
	C609.586060,677.073181 609.586060,677.073181 606.262268,672.068359 
	C603.379272,678.283264 597.650574,676.637939 593.428040,675.721924 
	C584.418274,673.767212 575.941528,676.575317 567.228088,676.837646 
	C562.555237,676.978271 557.850037,676.010925 553.157715,675.561523 
	C551.694946,675.421326 550.219543,675.190796 548.761963,675.258728 
	C543.812378,675.489258 538.871582,675.987366 533.921143,676.096191 
	C528.184692,676.222168 522.430786,676.226379 516.708374,675.883484 
	C515.075562,675.785706 513.264099,674.577148 511.996887,673.385986 
	C509.862823,671.379822 503.414032,671.185974 502.358521,673.772949 
	C500.301605,678.814331 496.771606,677.489746 493.816162,675.796143 
	C485.790222,671.196594 478.134796,673.066956 470.387421,676.241760 
	C469.779694,676.490845 469.056000,676.969727 468.527771,676.825012 
	C456.324646,673.482422 443.357758,677.579407 431.203369,672.785217 
	C427.871033,671.470764 423.677307,672.168518 419.884033,672.235474 
	C414.484741,672.330627 409.088715,672.667908 403.694427,672.959106 
	C401.454803,673.080078 399.223175,673.349182 395.982849,673.641602 
	C391.643646,673.068665 386.187561,672.122742 380.691040,671.684998 
	C375.029266,671.234070 369.328735,671.181091 363.643829,671.140747 
	C359.890198,671.114075 356.034058,670.869690 353.497070,674.741211 
	C351.330017,678.048096 348.017242,677.294006 344.931915,676.428650 
	C341.280182,675.404297 337.688416,674.166199 333.691650,673.016479 
	C333.246368,671.926025 333.180054,670.839844 333.589264,669.342896 
	C334.453644,667.978699 334.842499,667.025208 335.231323,666.071716 
	C335.943024,663.840271 336.654755,661.608826 338.019348,659.147217 
	C339.121216,657.723816 339.570160,656.530518 340.019165,655.337219 
	C340.396912,654.757202 340.774658,654.177124 341.651184,653.252075 
	C342.773621,651.724182 343.397369,650.541199 344.021118,649.358215 
	C344.553223,648.354492 345.085327,647.350708 346.236938,646.130676 
	C347.195709,645.217773 347.535004,644.521118 347.874298,643.824524 
	C347.874298,643.824524 347.935028,643.930298 348.340576,643.947266 
	C357.470520,643.990173 366.196960,643.906433 374.918793,644.069885 
	C385.683868,644.271667 396.445496,644.942444 407.207855,644.926270 
	C418.802460,644.908752 430.548645,643.005371 441.953674,644.316711 
	C457.975128,646.158752 473.391205,641.957153 489.136993,641.958130 
	C489.731689,641.958130 490.326385,641.494080 490.921082,641.246216 
	C493.408722,641.178040 495.896362,641.050903 498.384003,641.050293 
	C552.256470,641.037659 606.128906,641.037537 660.001404,641.044800 
	C661.827454,641.045044 663.653442,641.146790 665.769043,641.807007 
	C666.690430,642.655640 667.322327,642.898682 667.954224,643.141663 
	C669.493713,643.259705 671.033264,643.377747 672.786743,644.115845 
	C673.644531,644.896423 674.288330,645.056824 674.932190,645.217163 
	C675.524902,645.291565 676.117554,645.365967 676.869263,646.010620 
	C677.671387,646.763245 678.314514,646.945496 678.957581,647.127747 
	C681.841492,649.672424 684.725342,652.217163 687.787964,655.428772 
	C688.739319,657.051819 689.511963,658.007935 690.284607,658.964050 
	C690.284607,658.964050 690.360474,659.083069 690.264221,659.512451 
	C690.941101,660.968201 691.714233,661.994507 692.487366,663.020813 
	C692.660217,663.769714 692.833069,664.518555 692.728027,665.850586 
	C693.060791,666.916748 693.671448,667.399658 694.282104,667.882629 
	C694.493958,669.031250 694.705811,670.179871 694.781128,671.671021 
z"/>
<path fill="#117EBC" opacity="1.000000" stroke="none" 
	d="
M331.179932,355.026398 
	C331.129639,352.959595 331.079376,350.892822 331.364044,348.082703 
	C331.819092,340.907867 331.939178,334.476318 332.400360,328.069824 
	C334.031952,329.101593 335.628357,329.883514 336.561188,331.153046 
	C341.147034,337.393829 346.831238,337.552734 353.838989,335.742035 
	C362.434723,333.520996 371.299896,331.702728 380.134888,331.186005 
	C396.538147,330.226654 413.002899,330.253357 429.444183,330.029968 
	C441.761139,329.862610 454.087128,330.171509 466.398987,329.863831 
	C482.803070,329.453796 499.193176,328.462799 515.597656,328.101624 
	C523.143188,327.935486 530.707397,328.891968 538.265320,328.931000 
	C544.153015,328.961426 550.055847,327.952271 555.931213,328.121643 
	C569.759644,328.520264 583.570496,329.682983 597.398315,329.896942 
	C608.835693,330.073914 620.286072,329.282288 631.733276,329.042542 
	C634.345337,328.987854 637.041992,329.936798 639.571899,329.561890 
	C646.932007,328.471222 653.981628,328.925934 661.088867,331.358032 
	C664.398621,332.490601 668.881714,333.616302 671.613525,332.270264 
	C676.576111,329.825134 680.772278,330.387146 685.497864,332.539551 
	C685.824707,334.691833 686.151978,336.472534 686.181763,338.258148 
	C686.274658,343.834534 686.255066,349.412842 686.279053,354.990387 
	C686.173523,355.362305 686.067993,355.734222 685.406006,356.750549 
	C683.960693,358.625763 683.071899,359.856598 681.909302,360.892303 
	C681.696594,359.929535 681.764282,359.162323 681.817566,358.394135 
	C681.923035,356.874664 682.020569,355.354645 682.121460,353.834839 
	C680.462097,354.060638 678.781250,354.187012 677.149719,354.540863 
	C675.590576,354.879059 674.075989,355.880920 672.553528,355.856720 
	C661.274109,355.677368 649.998657,355.152069 638.719727,355.074982 
	C632.664307,355.033600 626.591064,356.082764 620.549500,355.892212 
	C611.385986,355.603210 602.250183,354.513519 593.087830,354.071960 
	C589.328552,353.890778 585.528564,354.754456 581.750610,354.723511 
	C568.303162,354.613495 554.831116,353.704437 541.417908,354.271027 
	C527.350525,354.865265 513.345459,356.868134 499.301270,358.122375 
	C495.749084,358.439575 492.151245,358.227051 488.575195,358.299286 
	C483.208130,358.407715 477.840668,358.690430 472.475433,358.647003 
	C465.849152,358.593353 459.222778,358.062012 452.600342,358.128021 
	C439.655060,358.257019 426.708588,358.543457 413.770264,358.987885 
	C405.889679,359.258575 397.928223,359.348145 390.172485,360.582977 
	C377.782074,362.555634 365.516113,364.320465 353.080109,361.222260 
	C352.179871,360.998016 351.129883,361.314026 350.158600,361.445862 
	C344.695282,362.187469 340.195190,364.626160 336.844696,369.066162 
	C335.744751,367.394196 334.644806,365.722229 333.331787,363.711578 
	C333.118744,363.372894 333.085266,363.235260 333.085266,363.235260 
	C333.045349,362.735504 333.005463,362.235779 333.235382,361.166687 
	C332.730103,358.740356 331.955017,356.883362 331.179932,355.026398 
z"/>
<path fill="#1067A2" opacity="1.000000" stroke="none" 
	d="
M331.300018,316.021820 
	C331.232391,304.696075 336.658020,296.218201 345.647766,290.088135 
	C350.772583,286.593597 356.727142,285.205292 363.180389,284.918579 
	C452.901306,280.931885 542.669922,284.323151 632.406860,283.085907 
	C641.988525,282.953766 651.787354,283.293488 661.127991,285.182190 
	C670.720947,287.121857 679.087891,292.230621 683.251404,302.847015 
	C684.355042,307.723999 685.306885,311.920105 685.847778,316.077881 
	C683.657349,315.647797 681.788574,315.481964 680.115662,314.820587 
	C675.678650,313.066528 670.047119,312.675781 669.645386,305.941223 
	C669.603699,305.242004 667.701782,304.185272 666.608398,304.112274 
	C664.148499,303.948059 661.616638,304.072296 659.181091,304.479767 
	C651.736755,305.725372 644.511353,307.758209 636.710571,307.211029 
	C630.875427,306.801727 624.913940,308.749207 618.991150,308.886230 
	C612.381958,309.039154 605.752197,308.054810 599.132690,308.071625 
	C591.512024,308.091034 583.895081,308.866882 576.272461,308.952881 
	C562.448914,309.108856 548.621033,309.109039 534.797424,308.955139 
	C526.587097,308.863739 518.372009,307.941467 510.175995,308.129761 
	C498.258881,308.403564 486.362854,309.498718 474.446686,309.945526 
	C465.710297,310.273102 456.951447,309.965790 448.210541,310.217346 
	C431.130554,310.708771 414.057983,311.455688 396.978424,311.966064 
	C390.460052,312.160889 383.925476,312.162537 377.408356,311.947693 
	C371.460205,311.751617 365.529205,310.899902 359.583710,310.813660 
	C356.285583,310.765778 351.963104,310.547943 349.861328,312.401398 
	C344.103546,317.478912 338.334808,319.105133 331.300018,316.021820 
z"/>
<path fill="#0E70AE" opacity="1.000000" stroke="none" 
	d="
M331.196533,316.444305 
	C338.334808,319.105133 344.103546,317.478912 349.861328,312.401398 
	C351.963104,310.547943 356.285583,310.765778 359.583710,310.813660 
	C365.529205,310.899902 371.460205,311.751617 377.408356,311.947693 
	C383.925476,312.162537 390.460052,312.160889 396.978424,311.966064 
	C414.057983,311.455688 431.130554,310.708771 448.210541,310.217346 
	C456.951447,309.965790 465.710297,310.273102 474.446686,309.945526 
	C486.362854,309.498718 498.258881,308.403564 510.175995,308.129761 
	C518.372009,307.941467 526.587097,308.863739 534.797424,308.955139 
	C548.621033,309.109039 562.448914,309.108856 576.272461,308.952881 
	C583.895081,308.866882 591.512024,308.091034 599.132690,308.071625 
	C605.752197,308.054810 612.381958,309.039154 618.991150,308.886230 
	C624.913940,308.749207 630.875427,306.801727 636.710571,307.211029 
	C644.511353,307.758209 651.736755,305.725372 659.181091,304.479767 
	C661.616638,304.072296 664.148499,303.948059 666.608398,304.112274 
	C667.701782,304.185272 669.603699,305.242004 669.645386,305.941223 
	C670.047119,312.675781 675.678650,313.066528 680.115662,314.820587 
	C681.788574,315.481964 683.657349,315.647797 685.864868,316.530090 
	C685.982544,322.070496 685.672363,327.120361 685.362183,332.170197 
	C680.772278,330.387146 676.576111,329.825134 671.613525,332.270264 
	C668.881714,333.616302 664.398621,332.490601 661.088867,331.358032 
	C653.981628,328.925934 646.932007,328.471222 639.571899,329.561890 
	C637.041992,329.936798 634.345337,328.987854 631.733276,329.042542 
	C620.286072,329.282288 608.835693,330.073914 597.398315,329.896942 
	C583.570496,329.682983 569.759644,328.520264 555.931213,328.121643 
	C550.055847,327.952271 544.153015,328.961426 538.265320,328.931000 
	C530.707397,328.891968 523.143188,327.935486 515.597656,328.101624 
	C499.193176,328.462799 482.803070,329.453796 466.398987,329.863831 
	C454.087128,330.171509 441.761139,329.862610 429.444183,330.029968 
	C413.002899,330.253357 396.538147,330.226654 380.134888,331.186005 
	C371.299896,331.702728 362.434723,333.520996 353.838989,335.742035 
	C346.831238,337.552734 341.147034,337.393829 336.561188,331.153046 
	C335.628357,329.883514 334.031952,329.101593 332.381897,327.668304 
	C331.739624,325.517426 331.456909,323.793121 331.174194,322.068817 
	C331.147156,320.334808 331.120087,318.600800 331.196533,316.444305 
z"/>
<path fill="#E1EEF4" opacity="1.000000" stroke="none" 
	d="
M490.615570,640.969116 
	C490.326385,641.494080 489.731689,641.958130 489.136993,641.958130 
	C473.391205,641.957153 457.975128,646.158752 441.953674,644.316711 
	C430.548645,643.005371 418.802460,644.908752 407.207855,644.926270 
	C396.445496,644.942444 385.683868,644.271667 374.918793,644.069885 
	C366.196960,643.906433 357.470520,643.990173 348.285706,643.920654 
	C356.965027,631.062866 366.104736,618.248779 375.787109,605.196472 
	C376.540894,604.302246 376.751953,603.646240 376.963013,602.990173 
	C378.147461,601.441528 379.331909,599.892883 381.226929,598.191711 
	C385.493103,598.694092 389.023834,599.656128 392.608948,599.945801 
	C403.061584,600.790649 413.529541,601.495911 424.003357,602.017883 
	C439.450439,602.787598 454.902771,603.629272 470.362457,603.905701 
	C480.616089,604.089111 490.885193,603.147339 501.149750,603.081055 
	C506.716705,603.045105 512.056274,602.896667 516.507751,598.999939 
	C512.073242,605.237061 507.558685,611.419189 503.226257,617.726440 
	C498.718109,624.289612 494.337891,630.942810 490.049866,637.651306 
	C489.615051,638.331543 490.198883,639.662903 490.615570,640.969116 
z"/>
<path fill="#3CA9DC" opacity="1.000000" stroke="none" 
	d="
M497.991333,433.233826 
	C498.697021,432.319244 499.402679,431.404663 500.639465,430.202209 
	C501.486847,429.105103 501.803070,428.295929 502.119324,427.486755 
	C503.136444,426.208954 504.153564,424.931152 505.656494,423.287720 
	C506.770691,421.711060 507.399078,420.499969 508.027466,419.288910 
	C508.412323,418.736847 508.797150,418.184753 509.655701,417.285583 
	C510.782196,415.758331 511.434967,414.578186 512.087769,413.398071 
	C512.322327,413.085114 512.556885,412.772186 513.308228,412.259186 
	C514.220703,411.990265 514.616394,411.921417 515.214111,412.146423 
	C516.647217,412.274658 517.947144,412.308167 519.098145,411.910614 
	C525.718201,409.624237 532.364746,407.727692 539.512085,408.285431 
	C552.022888,409.261749 564.539978,410.168854 577.062622,410.979218 
	C593.393127,412.036072 609.737366,412.885010 626.063843,413.997437 
	C633.079102,414.475403 640.230774,416.434814 645.142639,408.756470 
	C645.823792,407.691681 648.924683,408.174744 650.793335,408.259155 
	C645.250671,416.084442 639.737976,423.534241 634.419922,431.120453 
	C631.143005,435.795013 628.163025,440.677734 625.049744,445.467010 
	C625.049744,445.467010 625.120239,445.744659 624.643555,445.896667 
	C623.467407,447.384125 622.767883,448.719574 622.068359,450.055054 
	C622.068359,450.055054 622.010986,449.997955 621.666260,450.027954 
	C620.359619,450.238800 619.364197,450.679443 618.441162,450.560059 
	C609.676758,449.426910 600.954224,447.523651 592.162842,447.138153 
	C573.904907,446.337524 555.612305,446.329498 537.334167,445.985657 
	C536.505554,445.970093 535.656006,445.956085 534.854553,445.773132 
	C519.860046,442.350769 504.793732,442.722229 489.690186,444.870148 
	C491.739410,442.079132 493.788605,439.288116 496.390808,436.204712 
	C497.292969,435.019470 497.642151,434.126648 497.991333,433.233826 
z"/>
<path fill="#2094CF" opacity="1.000000" stroke="none" 
	d="
M650.905396,407.941254 
	C648.924683,408.174744 645.823792,407.691681 645.142639,408.756470 
	C640.230774,416.434814 633.079102,414.475403 626.063843,413.997437 
	C609.737366,412.885010 593.393127,412.036072 577.062622,410.979218 
	C564.539978,410.168854 552.022888,409.261749 539.512085,408.285431 
	C532.364746,407.727692 525.718201,409.624237 519.098145,411.910614 
	C517.947144,412.308167 516.647217,412.274658 515.352295,411.849823 
	C516.200256,409.248566 517.111938,407.237732 518.023621,405.226868 
	C518.507324,404.602600 518.991089,403.978333 520.051697,403.125977 
	C521.071411,401.932678 521.514282,400.967499 521.957214,400.002350 
	C521.957214,400.002350 521.979065,399.955597 522.252808,399.851440 
	C522.640015,399.416412 522.753479,399.085541 522.866943,398.754700 
	C525.556885,394.681519 528.246887,390.608368 530.969055,385.873016 
	C531.017822,384.809631 531.034363,384.408417 531.385986,383.948334 
	C535.456787,379.229156 540.406311,377.810333 546.217224,377.944519 
	C555.300476,378.154297 564.394226,377.877075 573.479736,378.031494 
	C585.492676,378.235657 597.501465,378.674896 609.512878,378.980865 
	C624.016846,379.350281 638.564819,379.151642 653.003113,380.319702 
	C658.210205,380.740936 661.613464,380.217804 665.278259,376.522552 
	C667.571350,374.210358 670.642212,370.752747 674.771851,374.302612 
	C673.444763,376.912537 672.229004,379.200500 671.013184,381.488464 
	C671.013184,381.488464 671.041138,381.651642 670.641113,381.830597 
	C667.151062,386.605743 664.060974,391.201965 660.970947,395.798157 
	C660.970947,395.798187 661.020142,395.945587 660.613464,396.010620 
	C657.106323,400.030853 654.005859,403.986053 650.905396,407.941254 
z"/>
<path fill="#A5D5ED" opacity="1.000000" stroke="none" 
	d="
M411.903564,554.990662 
	C416.373413,548.367737 420.788147,541.706726 425.333435,535.136047 
	C428.144318,531.072571 431.153656,527.146362 434.861023,523.064087 
	C443.052795,522.982239 450.466278,522.768555 457.859985,523.058960 
	C469.688507,523.523682 481.502289,524.352844 493.325195,524.973938 
	C513.004089,526.007629 532.679382,527.159546 552.370056,527.886780 
	C556.933044,528.055359 560.432983,529.123047 562.961304,532.924683 
	C558.776917,538.924255 554.563049,544.903503 550.420959,550.932129 
	C548.441650,553.812988 546.598450,556.787476 544.341187,559.461060 
	C542.231995,557.803711 540.577515,555.357178 538.701904,555.173889 
	C525.237061,553.858093 511.740021,552.733704 498.227386,552.090149 
	C488.503845,551.627136 478.738190,552.128357 468.995575,551.957825 
	C461.723572,551.830627 454.456604,551.350342 447.190918,550.961487 
	C443.814606,550.780701 440.378235,550.780640 437.088013,550.112915 
	C427.963318,548.260925 419.443115,548.936218 411.903564,554.990662 
z"/>
<path fill="#1385C3" opacity="1.000000" stroke="none" 
	d="
M336.895630,369.419159 
	C340.195190,364.626160 344.695282,362.187469 350.158600,361.445862 
	C351.129883,361.314026 352.179871,360.998016 353.080109,361.222260 
	C365.516113,364.320465 377.782074,362.555634 390.172485,360.582977 
	C397.928223,359.348145 405.889679,359.258575 413.770264,358.987885 
	C426.708588,358.543457 439.655060,358.257019 452.600342,358.128021 
	C459.222778,358.062012 465.849152,358.593353 472.475433,358.647003 
	C477.840668,358.690430 483.208130,358.407715 488.575195,358.299286 
	C492.151245,358.227051 495.749084,358.439575 499.301270,358.122375 
	C513.345459,356.868134 527.350525,354.865265 541.417908,354.271027 
	C554.831116,353.704437 568.303162,354.613495 581.750610,354.723511 
	C585.528564,354.754456 589.328552,353.890778 593.087830,354.071960 
	C602.250183,354.513519 611.385986,355.603210 620.549500,355.892212 
	C626.591064,356.082764 632.664307,355.033600 638.719727,355.074982 
	C649.998657,355.152069 661.274109,355.677368 672.553528,355.856720 
	C674.075989,355.880920 675.590576,354.879059 677.149719,354.540863 
	C678.781250,354.187012 680.462097,354.060638 682.121460,353.834839 
	C682.020569,355.354645 681.923035,356.874664 681.817566,358.394135 
	C681.764282,359.162323 681.696594,359.929535 681.844238,361.227173 
	C681.102539,363.278076 680.152039,364.798950 679.020752,365.970795 
	C674.627014,364.224640 670.133667,361.103058 666.250305,361.734222 
	C650.908325,364.227875 635.669922,364.613159 620.239990,363.161652 
	C613.360840,362.514526 606.376038,362.844055 599.442810,362.956299 
	C591.498169,363.084991 583.469910,364.337921 575.633911,363.550262 
	C560.122925,361.991028 544.680786,362.704468 529.685608,365.936615 
	C514.653992,369.176605 499.581818,367.012726 484.592834,368.718475 
	C476.090485,369.685974 467.333984,368.150574 458.704895,368.338074 
	C446.456116,368.604279 434.221802,369.823364 421.976746,369.899139 
	C406.200012,369.996796 390.541687,370.747314 375.060974,373.999146 
	C370.510681,374.954926 367.138123,378.545197 366.558716,382.986786 
	C364.097534,382.993683 362.071655,382.996185 359.644165,382.990906 
	C358.436737,382.989075 357.630920,382.995056 356.825104,383.001038 
	C347.827667,382.154602 341.897156,376.699585 336.895630,369.419159 
z"/>
<path fill="#58B5E1" opacity="1.000000" stroke="none" 
	d="
M489.414093,445.066772 
	C504.793732,442.722229 519.860046,442.350769 534.854553,445.773132 
	C535.656006,445.956085 536.505554,445.970093 537.334167,445.985657 
	C555.612305,446.329498 573.904907,446.337524 592.162842,447.138153 
	C600.954224,447.523651 609.676758,449.426910 618.441162,450.560059 
	C619.364197,450.679443 620.359619,450.238800 621.689087,450.060486 
	C619.294800,454.276245 616.601746,458.536621 613.752319,462.689758 
	C610.803223,466.988098 607.702515,471.182343 604.310120,475.332153 
	C603.655334,475.637634 603.358521,476.033112 603.061768,476.428558 
	C603.061768,476.428558 603.194641,476.638672 602.881836,476.883789 
	C602.394165,477.439972 602.219299,477.750977 602.044434,478.062012 
	C602.044495,478.062012 601.999634,478.004944 601.788025,478.111694 
	C601.396729,478.503448 601.217102,478.788422 601.037476,479.073425 
	C601.037476,479.073425 601.026917,478.996368 600.698975,479.032745 
	C599.011719,478.674744 597.576233,478.441956 596.312256,477.845459 
	C594.695190,477.082397 593.313843,475.500458 591.659912,475.193939 
	C586.472229,474.232452 581.220703,473.284637 575.964722,473.080505 
	C554.257568,472.237427 532.513916,472.106171 510.835693,470.829803 
	C498.855865,470.124451 486.978973,467.669952 475.055664,466.003906 
	C479.749756,459.090424 484.443848,452.176941 489.414093,445.066772 
z"/>
<path fill="#72BFE5" opacity="1.000000" stroke="none" 
	d="
M474.839355,466.259949 
	C486.978973,467.669952 498.855865,470.124451 510.835693,470.829803 
	C532.513916,472.106171 554.257568,472.237427 575.964722,473.080505 
	C581.220703,473.284637 586.472229,474.232452 591.659912,475.193939 
	C593.313843,475.500458 594.695190,477.082397 596.312256,477.845459 
	C597.576233,478.441956 599.011719,478.674744 600.720886,479.064941 
	C598.015381,483.780548 594.991272,488.520966 591.889404,493.209991 
	C590.646362,495.089081 589.232239,496.855042 587.223999,498.853760 
	C586.113037,499.771393 585.674072,500.507782 585.235107,501.244171 
	C585.235107,501.244171 585.089783,501.152252 584.789673,501.095154 
	C581.753845,500.017883 579.075439,498.346283 576.271545,498.099396 
	C567.785828,497.352295 559.252563,497.136475 550.736023,496.751770 
	C530.166565,495.822632 509.588013,495.063110 489.030212,493.926208 
	C480.827179,493.472504 472.647430,492.361328 464.501495,491.229828 
	C461.294098,490.784302 458.359253,490.243622 455.928375,492.973877 
	C462.159943,484.154572 468.391510,475.335266 474.839355,466.259949 
z"/>
<path fill="#CAE6F3" opacity="1.000000" stroke="none" 
	d="
M516.689026,598.760925 
	C512.056274,602.896667 506.716705,603.045105 501.149750,603.081055 
	C490.885193,603.147339 480.616089,604.089111 470.362457,603.905701 
	C454.902771,603.629272 439.450439,602.787598 424.003357,602.017883 
	C413.529541,601.495911 403.061584,600.790649 392.608948,599.945801 
	C389.023834,599.656128 385.493103,598.694092 381.524109,598.039612 
	C381.198761,597.442688 381.286865,596.845337 381.977417,596.085083 
	C383.057434,595.067444 383.534912,594.212646 384.012390,593.357849 
	C384.472229,592.678955 384.932068,592.000122 385.995850,591.121887 
	C387.067871,590.004333 387.535919,589.086243 388.003967,588.168091 
	C389.109985,586.578186 390.216034,584.988342 392.005035,583.157471 
	C401.052979,582.655945 409.426056,582.037842 417.780731,582.228088 
	C427.529663,582.450073 437.256714,583.774963 447.003479,583.916260 
	C466.479065,584.198547 485.962128,583.916748 505.440948,584.046631 
	C511.957306,584.090088 518.470032,584.677979 525.028198,585.402100 
	C525.120605,586.041138 525.169373,586.295044 525.218201,586.548950 
	C523.461426,589.242676 521.704590,591.936340 519.396790,594.970581 
	C518.623840,595.664795 518.401855,596.018433 518.179871,596.372070 
	C518.179871,596.372070 518.151672,596.146240 517.962097,596.249268 
	C517.546509,596.689392 517.320557,597.026428 517.094604,597.363525 
	C517.019836,597.749634 516.945068,598.135803 516.689026,598.760925 
z"/>
<path fill="#BFE0F1" opacity="1.000000" stroke="none" 
	d="
M524.984436,585.016968 
	C518.470032,584.677979 511.957306,584.090088 505.440948,584.046631 
	C485.962128,583.916748 466.479065,584.198547 447.003479,583.916260 
	C437.256714,583.774963 427.529663,582.450073 417.780731,582.228088 
	C409.426056,582.037842 401.052979,582.655945 392.259033,582.953125 
	C396.952667,575.901489 402.075287,568.813354 407.532104,561.945312 
	C408.602295,563.088867 409.207275,564.658081 410.093994,564.837830 
	C421.765198,567.204163 433.496307,568.987671 445.440613,566.929199 
	C447.385437,566.594116 449.401398,565.897583 451.288788,566.133606 
	C461.066223,567.356445 470.739319,568.799133 480.726959,568.178955 
	C489.280548,567.647888 497.928070,568.756592 506.538269,568.969849 
	C512.935852,569.128357 519.342957,568.904907 525.740479,569.063965 
	C529.419922,569.155396 533.088867,569.669678 536.762512,569.993652 
	C533.566650,574.595154 530.370728,579.196716 526.596191,584.008606 
	C525.688110,584.473328 525.358643,584.727722 525.017578,584.989685 
	C525.006042,584.997314 524.984436,585.017029 524.984436,585.016968 
z"/>
<path fill="#B3DBEF" opacity="1.000000" stroke="none" 
	d="
M536.938110,569.876648 
	C533.088867,569.669678 529.419922,569.155396 525.740479,569.063965 
	C519.342957,568.904907 512.935852,569.128357 506.538269,568.969849 
	C497.928070,568.756592 489.280548,567.647888 480.726959,568.178955 
	C470.739319,568.799133 461.066223,567.356445 451.288788,566.133606 
	C449.401398,565.897583 447.385437,566.594116 445.440613,566.929199 
	C433.496307,568.987671 421.765198,567.204163 410.093994,564.837830 
	C409.207275,564.658081 408.602295,563.088867 407.801697,561.718262 
	C407.737061,561.270996 407.710114,561.087708 408.089233,561.021851 
	C408.660248,560.311035 408.852112,559.666138 409.043945,559.021179 
	C409.820709,557.803467 410.597473,556.585693 411.638916,555.179321 
	C419.443115,548.936218 427.963318,548.260925 437.088013,550.112915 
	C440.378235,550.780640 443.814606,550.780701 447.190918,550.961487 
	C454.456604,551.350342 461.723572,551.830627 468.995575,551.957825 
	C478.738190,552.128357 488.503845,551.627136 498.227386,552.090149 
	C511.740021,552.733704 525.237061,553.858093 538.701904,555.173889 
	C540.577515,555.357178 542.231995,557.803711 544.016174,559.582520 
	C542.935364,561.528076 541.827209,563.093689 540.177002,565.022949 
	C539.447693,565.779541 539.260437,566.172424 539.073181,566.565308 
	C539.073181,566.565308 539.206055,566.784546 538.772095,566.946228 
	C537.926819,567.851135 537.515442,568.594421 537.104126,569.337646 
	C537.104126,569.337646 537.113770,569.759644 536.938110,569.876648 
z"/>
<path fill="#7FC5E7" opacity="1.000000" stroke="none" 
	d="
M455.655701,493.165680 
	C458.359253,490.243622 461.294098,490.784302 464.501495,491.229828 
	C472.647430,492.361328 480.827179,493.472504 489.030212,493.926208 
	C509.588013,495.063110 530.166565,495.822632 550.736023,496.751770 
	C559.252563,497.136475 567.785828,497.352295 576.271545,498.099396 
	C579.075439,498.346283 581.753845,500.017883 584.865723,501.147064 
	C585.135071,501.691833 585.028320,502.127563 584.641724,502.972778 
	C584.191956,503.588135 584.148315,503.818054 584.230957,504.072021 
	C582.572693,506.193573 580.914429,508.315125 578.871826,510.834717 
	C578.251770,511.441223 578.106995,511.700439 578.053040,512.010437 
	C578.053040,512.010437 578.032715,512.034180 577.686523,512.073730 
	C576.956970,512.807373 576.573608,513.501404 576.190247,514.195496 
	C576.190247,514.195496 576.106689,514.123901 575.878662,514.229736 
	C575.469299,514.686462 575.287842,515.037354 575.106384,515.388245 
	C575.106384,515.388245 575.222229,515.707397 574.742554,515.886841 
	C573.537476,517.402832 572.812073,518.739258 572.086670,520.075684 
	C572.086670,520.075684 572.019653,520.073425 571.812134,520.158875 
	C571.417419,520.524353 571.230164,520.804321 571.042969,521.084351 
	C571.042969,521.084351 571.030457,520.998596 570.673279,521.003418 
	C568.952087,519.756531 567.765442,517.739014 566.195679,517.375488 
	C554.786316,514.733032 543.376770,511.907349 531.811646,510.183838 
	C523.579895,508.957153 515.053894,508.604126 506.750427,509.179077 
	C486.639679,510.571533 467.070404,503.152344 446.941650,505.983124 
	C449.755432,501.774597 452.569214,497.566040 455.655701,493.165680 
z"/>
<path fill="#8DCBE9" opacity="1.000000" stroke="none" 
	d="
M446.630798,506.110718 
	C467.070404,503.152344 486.639679,510.571533 506.750427,509.179077 
	C515.053894,508.604126 523.579895,508.957153 531.811646,510.183838 
	C543.376770,511.907349 554.786316,514.733032 566.195679,517.375488 
	C567.765442,517.739014 568.952087,519.756531 570.697388,521.039490 
	C568.533569,524.867249 565.988525,528.663818 563.202393,532.692505 
	C560.432983,529.123047 556.933044,528.055359 552.370056,527.886780 
	C532.679382,527.159546 513.004089,526.007629 493.325195,524.973938 
	C481.502289,524.352844 469.688507,523.523682 457.859985,523.058960 
	C450.466278,522.768555 443.052795,522.982239 435.191467,522.934937 
	C438.596466,517.346130 442.458221,511.792236 446.630798,506.110718 
z"/>
<path fill="#E1EEF4" opacity="1.000000" stroke="none" 
	d="
M958.416016,962.625427 
	C962.489929,957.389526 966.282593,952.392944 970.652649,946.635620 
	C974.862732,956.785278 981.438477,965.206665 992.728271,969.369507 
	C987.349060,973.006897 982.355530,975.413940 978.693665,979.132385 
	C975.034546,982.848267 972.707947,987.876465 969.515808,992.759888 
	C966.623413,987.961304 964.507751,982.497864 960.715881,978.714050 
	C956.974060,974.980042 951.536499,972.945435 945.939453,969.630310 
	C950.589294,967.050720 954.362061,964.957764 958.416016,962.625427 
z"/>
<path fill="#3CA9DC" opacity="1.000000" stroke="none" 
	d="
M357.021667,383.356750 
	C357.630920,382.995056 358.436737,382.989075 359.939606,383.277466 
	C361.781555,383.709625 362.926453,383.967682 364.071381,383.967865 
	C419.700348,383.977356 475.329285,383.964661 530.980469,383.969360 
	C531.002625,383.984314 531.050903,384.007233 531.050903,384.007233 
	C531.034363,384.408417 531.017822,384.809631 531.030396,385.510193 
	C529.444458,385.545746 527.829468,385.051819 526.214294,385.051392 
	C471.741974,385.037445 417.269653,385.084198 362.797394,385.038330 
	C360.937286,385.036774 359.077942,384.173859 357.021667,383.356750 
z"/>
<path fill="#58B5E1" opacity="1.000000" stroke="none" 
	d="
M650.793335,408.259155 
	C654.005859,403.986053 657.106323,400.030853 660.539490,396.034302 
	C659.125793,398.927429 657.583313,402.008392 655.598328,404.771484 
	C646.196594,417.859039 636.677917,430.862610 627.180725,443.881409 
	C626.799683,444.403717 626.214050,444.776703 625.386719,445.343140 
	C628.163025,440.677734 631.143005,435.795013 634.419922,431.120453 
	C639.737976,423.534241 645.250671,416.084442 650.793335,408.259155 
z"/>
<path fill="#58B5E1" opacity="1.000000" stroke="none" 
	d="
M685.497864,332.539551 
	C685.672363,327.120361 685.982544,322.070496 686.275757,316.568451 
	C685.306885,311.920105 684.355042,307.723999 683.196899,303.214844 
	C684.305725,305.489532 686.718201,308.061951 686.754700,310.667633 
	C686.964600,325.628265 686.611023,340.596802 686.363831,355.276520 
	C686.255066,349.412842 686.274658,343.834534 686.181763,338.258148 
	C686.151978,336.472534 685.824707,334.691833 685.497864,332.539551 
z"/>
<path fill="#E1EEF4" opacity="1.000000" stroke="none" 
	d="
M694.995667,707.614136 
	C694.532104,707.350464 694.037231,706.769714 694.038513,706.190063 
	C694.061340,696.030334 694.144775,685.870728 694.472595,675.403687 
	C697.264587,685.795593 697.295654,696.531128 694.995667,707.614136 
z"/>
<path fill="#58B5E1" opacity="1.000000" stroke="none" 
	d="
M679.201538,366.319855 
	C680.152039,364.798950 681.102539,363.278076 682.118042,361.422302 
	C683.071899,359.856598 683.960693,358.625763 685.034180,357.195526 
	C684.246216,360.201141 683.852417,363.755157 682.175598,366.535492 
	C679.076172,371.675110 675.224976,376.361450 671.350098,381.362549 
	C672.229004,379.200500 673.444763,376.912537 674.942627,374.000916 
	C676.550354,371.024780 677.875977,368.672302 679.201538,366.319855 
z"/>
<path fill="#1067A2" opacity="1.000000" stroke="none" 
	d="
M330.915863,322.379395 
	C331.456909,323.793121 331.739624,325.517426 332.040833,327.643250 
	C331.939178,334.476318 331.819092,340.907867 331.424591,347.643158 
	C330.985962,339.527924 330.821747,331.108917 330.915863,322.379395 
z"/>
<path fill="#58B5E1" opacity="1.000000" stroke="none" 
	d="
M661.249756,395.631409 
	C664.060974,391.201965 667.151062,386.605743 670.563965,381.860657 
	C667.767395,386.296051 664.648010,390.880371 661.249756,395.631409 
z"/>
<path fill="#E1EEF4" opacity="1.000000" stroke="none" 
	d="
M331.606018,704.306030 
	C332.400269,706.126526 333.038971,708.291931 333.425049,710.695068 
	C332.598450,708.838745 332.024475,706.744873 331.606018,704.306030 
z"/>
<path fill="#117EBC" opacity="1.000000" stroke="none" 
	d="
M517.717896,405.326630 
	C517.111938,407.237732 516.200256,409.248566 515.150330,411.555969 
	C514.616394,411.921417 514.220703,411.990265 513.524292,412.060150 
	C514.619812,409.849548 516.015930,407.637970 517.717896,405.326630 
z"/>
<path fill="#E1EEF4" opacity="1.000000" stroke="none" 
	d="
M333.012817,676.345764 
	C332.919189,677.984802 332.613617,679.900452 332.017700,681.929810 
	C332.085205,680.236389 332.442993,678.429443 333.012817,676.345764 
z"/>
<path fill="#58B5E1" opacity="1.000000" stroke="none" 
	d="
M622.410400,449.991211 
	C622.767883,448.719574 623.467407,447.384125 624.515930,445.961639 
	C624.160767,447.225525 623.456665,448.576477 622.410400,449.991211 
z"/>
<path fill="#8DCBE9" opacity="1.000000" stroke="none" 
	d="
M572.412598,519.994141 
	C572.812073,518.739258 573.537476,517.402832 574.620972,516.005432 
	C574.232361,517.267212 573.485474,518.589905 572.412598,519.994141 
z"/>
<path fill="#1067A2" opacity="1.000000" stroke="none" 
	d="
M331.049561,355.317139 
	C331.955017,356.883362 332.730103,358.740356 333.269714,360.791931 
	C332.329193,359.193604 331.624176,357.400726 331.049561,355.317139 
z"/>
<path fill="#117EBC" opacity="1.000000" stroke="none" 
	d="
M507.729553,419.359009 
	C507.399078,420.499969 506.770691,421.711060 505.842712,422.986481 
	C506.172607,421.843597 506.802124,420.636353 507.729553,419.359009 
z"/>
<path fill="#117EBC" opacity="1.000000" stroke="none" 
	d="
M511.786804,413.451508 
	C511.434967,414.578186 510.782196,415.758331 509.830933,416.997620 
	C510.183563,415.872833 510.834717,414.688873 511.786804,413.451508 
z"/>
<path fill="#E1EEF4" opacity="1.000000" stroke="none" 
	d="
M343.733856,649.439636 
	C343.397369,650.541199 342.773621,651.724182 341.849548,652.967224 
	C342.181641,651.858521 342.814117,650.689819 343.733856,649.439636 
z"/>
<path fill="#E1EEF4" opacity="1.000000" stroke="none" 
	d="
M693.060791,718.751343 
	C693.194885,717.975342 693.563171,717.008972 694.218384,716.004456 
	C694.101868,716.831177 693.698486,717.695984 693.060791,718.751343 
z"/>
<path fill="#E1EEF4" opacity="1.000000" stroke="none" 
	d="
M357.259521,741.038574 
	C358.028503,741.173035 358.992615,741.536987 359.995728,742.184814 
	C359.174683,742.068542 358.314636,741.668335 357.259521,741.038574 
z"/>
<path fill="#E1EEF4" opacity="1.000000" stroke="none" 
	d="
M335.021362,666.289368 
	C334.842499,667.025208 334.453644,667.978699 333.783264,668.977417 
	C333.938293,668.184143 334.374817,667.345581 335.021362,666.289368 
z"/>
<path fill="#E1EEF4" opacity="1.000000" stroke="none" 
	d="
M692.553223,662.706665 
	C691.714233,661.994507 690.941101,660.968201 690.267456,659.583008 
	C691.117676,660.280212 691.868347,661.336365 692.553223,662.706665 
z"/>
<path fill="#E1EEF4" opacity="1.000000" stroke="none" 
	d="
M690.295654,658.636353 
	C689.511963,658.007935 688.739319,657.051819 687.972656,655.729370 
	C688.754700,656.344849 689.530762,657.326782 690.295654,658.636353 
z"/>
<path fill="#E1EEF4" opacity="1.000000" stroke="none" 
	d="
M339.719696,655.427551 
	C339.570160,656.530518 339.121216,657.723816 338.327759,658.954102 
	C338.462219,657.833374 338.941254,656.675659 339.719696,655.427551 
z"/>
<path fill="#E1EEF4" opacity="1.000000" stroke="none" 
	d="
M342.006012,732.355103 
	C342.929993,732.702026 343.936554,733.348450 344.982880,734.315796 
	C344.044617,733.976074 343.066589,733.315369 342.006012,732.355103 
z"/>
<path fill="#E1EEF4" opacity="1.000000" stroke="none" 
	d="
M677.403809,738.112610 
	C677.941406,737.444397 678.821472,736.758667 680.099121,736.138916 
	C679.579834,736.834961 678.663025,737.464966 677.403809,738.112610 
z"/>
<path fill="#117EBC" opacity="1.000000" stroke="none" 
	d="
M521.642944,400.057556 
	C521.514282,400.967499 521.071411,401.932678 520.277832,402.933380 
	C520.394287,402.016876 520.861450,401.064819 521.642944,400.057556 
z"/>
<path fill="#BFE0F1" opacity="1.000000" stroke="none" 
	d="
M387.709473,588.260620 
	C387.535919,589.086243 387.067871,590.004333 386.257629,590.957275 
	C386.415283,590.112427 386.915131,589.232727 387.709473,588.260620 
z"/>
<path fill="#E1EEF4" opacity="1.000000" stroke="none" 
	d="
M336.667236,724.239136 
	C337.151031,724.679626 337.605042,725.398743 338.041321,726.403687 
	C337.561554,725.965576 337.099518,725.241638 336.667236,724.239136 
z"/>
<path fill="#BFE0F1" opacity="1.000000" stroke="none" 
	d="
M383.731445,593.437927 
	C383.534912,594.212646 383.057434,595.067444 382.252502,595.942139 
	C382.433563,595.147400 382.942047,594.332703 383.731445,593.437927 
z"/>
<path fill="#117EBC" opacity="1.000000" stroke="none" 
	d="
M497.703918,433.305908 
	C497.642151,434.126648 497.292969,435.019470 496.647827,435.966858 
	C496.706726,435.140228 497.061615,434.259094 497.703918,433.305908 
z"/>
<path fill="#117EBC" opacity="1.000000" stroke="none" 
	d="
M501.838959,427.523132 
	C501.803070,428.295929 501.486847,429.105103 500.915588,429.990723 
	C500.959900,429.231293 501.259277,428.395386 501.838959,427.523132 
z"/>
<path fill="#E1EEF4" opacity="1.000000" stroke="none" 
	d="
M688.488037,728.326538 
	C688.569214,727.675903 688.939758,726.887878 689.673340,726.061707 
	C689.616760,726.745422 689.197083,727.467285 688.488037,728.326538 
z"/>
<path fill="#7FC5E7" opacity="1.000000" stroke="none" 
	d="
M585.565186,501.169189 
	C585.674072,500.507782 586.113037,499.771393 586.919128,498.973877 
	C586.822571,499.639923 586.358948,500.367065 585.565186,501.169189 
z"/>
<path fill="#E1EEF4" opacity="1.000000" stroke="none" 
	d="
M667.241333,741.539612 
	C667.514221,741.128601 668.058655,740.729675 668.754089,740.531128 
	C668.441040,741.004944 667.976929,741.278381 667.241333,741.539612 
z"/>
<path fill="#E1EEF4" opacity="1.000000" stroke="none" 
	d="
M694.255676,667.577515 
	C693.671448,667.399658 693.060791,666.916748 692.671387,666.238525 
	C693.338135,666.453003 693.783691,666.862732 694.255676,667.577515 
z"/>
<path fill="#8DCBE9" opacity="1.000000" stroke="none" 
	d="
M576.480652,514.114014 
	C576.573608,513.501404 576.956970,512.807373 577.675964,512.085327 
	C577.598145,512.715698 577.184631,513.374084 576.480652,514.114014 
z"/>
<path fill="#E1EEF4" opacity="1.000000" stroke="none" 
	d="
M673.300964,739.987610 
	C673.535156,739.469177 674.063660,738.938110 674.766357,738.627625 
	C674.492126,739.223816 674.043640,739.599365 673.300964,739.987610 
z"/>
<path fill="#A5D5ED" opacity="1.000000" stroke="none" 
	d="
M408.816467,559.215759 
	C408.852112,559.666138 408.660248,560.311035 408.166321,560.970398 
	C408.105865,560.459961 408.347443,559.935181 408.816467,559.215759 
z"/>
<path fill="#BFE0F1" opacity="1.000000" stroke="none" 
	d="
M537.426880,569.234009 
	C537.515442,568.594421 537.926819,567.851135 538.684692,567.039978 
	C538.604004,567.691467 538.176819,568.410950 537.426880,569.234009 
z"/>
<path fill="#E1EEF4" opacity="1.000000" stroke="none" 
	d="
M678.750244,646.923767 
	C678.314514,646.945496 677.671387,646.763245 677.015747,646.289795 
	C677.516479,646.239075 678.029663,646.479431 678.750244,646.923767 
z"/>
<path fill="#E1EEF4" opacity="1.000000" stroke="none" 
	d="
M674.702759,645.049072 
	C674.288330,645.056824 673.644531,644.896423 672.971069,644.460449 
	C673.452026,644.416870 673.962646,644.648926 674.702759,645.049072 
z"/>
<path fill="#E1EEF4" opacity="1.000000" stroke="none" 
	d="
M347.590912,643.905518 
	C347.535004,644.521118 347.195709,645.217773 346.538818,645.961792 
	C346.583313,645.335022 346.945435,644.660767 347.590912,643.905518 
z"/>
<path fill="#E1EEF4" opacity="1.000000" stroke="none" 
	d="
M667.794006,642.881287 
	C667.322327,642.898682 666.690430,642.655640 666.067749,642.111023 
	C666.595947,642.079895 667.114868,642.350403 667.794006,642.881287 
z"/>
<path fill="#CAE6F3" opacity="1.000000" stroke="none" 
	d="
M376.680908,603.141846 
	C376.751953,603.646240 376.540894,604.302246 376.008667,604.958496 
	C375.924622,604.403625 376.161713,603.848633 376.680908,603.141846 
z"/>
<path fill="#E1EEF4" opacity="1.000000" stroke="none" 
	d="
M340.318054,730.269287 
	C340.843109,730.472717 341.402802,730.962708 341.953552,731.764832 
	C341.413971,731.569885 340.883362,731.062927 340.318054,730.269287 
z"/>
<path fill="#E1EEF4" opacity="1.000000" stroke="none" 
	d="
M334.185577,719.238281 
	C334.630066,719.503906 335.118652,720.050415 335.391663,720.765015 
	C334.860657,720.461792 334.545166,719.990417 334.185577,719.238281 
z"/>
<path fill="#72BFE5" opacity="1.000000" stroke="none" 
	d="
M603.357971,476.306213 
	C603.358521,476.033112 603.655334,475.637634 604.028687,475.485413 
	C603.954956,475.880402 603.804565,476.032135 603.357971,476.306213 
z"/>
<path fill="#1067A2" opacity="1.000000" stroke="none" 
	d="
M332.965912,363.236938 
	C333.085266,363.235260 333.118744,363.372894 333.104126,363.441589 
	C333.089539,363.510254 332.798004,363.520721 332.798004,363.520721 
	C332.798004,363.520721 332.846558,363.238647 332.965912,363.236938 
z"/>
<path fill="#72BFE5" opacity="1.000000" stroke="none" 
	d="
M601.302917,479.017334 
	C601.217102,478.788422 601.396729,478.503448 601.819214,478.130096 
	C601.897461,478.348236 601.732910,478.654755 601.302917,479.017334 
z"/>
<path fill="#117EBC" opacity="1.000000" stroke="none" 
	d="
M522.715271,398.947845 
	C522.753479,399.085541 522.640015,399.416412 522.278564,399.853882 
	C522.184753,399.672089 522.362488,399.398926 522.715271,398.947845 
z"/>
<path fill="#E1EEF4" opacity="1.000000" stroke="none" 
	d="
M517.393860,597.271973 
	C517.320557,597.026428 517.546509,596.689392 518.074524,596.266846 
	C518.148743,596.514404 517.920959,596.847412 517.393860,597.271973 
z"/>
<path fill="#E1EEF4" opacity="1.000000" stroke="none" 
	d="
M518.474731,596.258118 
	C518.401855,596.018433 518.623840,595.664795 519.150635,595.202515 
	C519.226807,595.443970 518.998169,595.794067 518.474731,596.258118 
z"/>
<path fill="#BFE0F1" opacity="1.000000" stroke="none" 
	d="
M525.530151,586.405029 
	C525.169373,586.295044 525.120605,586.041138 525.028198,585.402100 
	C524.984436,585.017029 525.006042,584.997314 525.336914,584.998047 
	C525.880615,585.010864 526.093506,585.022949 526.306335,585.034973 
	C526.151611,585.443665 525.996887,585.852356 525.530151,586.405029 
z"/>
<path fill="#CAE6F3" opacity="1.000000" stroke="none" 
	d="
M526.492188,584.851868 
	C526.093506,585.022949 525.880615,585.010864 525.348511,584.990479 
	C525.358643,584.727722 525.688110,584.473328 526.336914,584.183105 
	C526.663513,584.321167 526.670837,584.494995 526.492188,584.851868 
z"/>
<path fill="#BFE0F1" opacity="1.000000" stroke="none" 
	d="
M539.381226,566.416992 
	C539.260437,566.172424 539.447693,565.779541 539.921997,565.224976 
	C540.035889,565.465149 539.862610,565.866943 539.381226,566.416992 
z"/>
<path fill="#8DCBE9" opacity="1.000000" stroke="none" 
	d="
M571.302429,521.014404 
	C571.230164,520.804321 571.417419,520.524353 571.842102,520.144409 
	C571.907043,520.344482 571.734497,520.644470 571.302429,521.014404 
z"/>
<path fill="#8DCBE9" opacity="1.000000" stroke="none" 
	d="
M575.401794,515.288208 
	C575.287842,515.037354 575.469299,514.686462 575.933411,514.223938 
	C576.043152,514.470947 575.870178,514.829529 575.401794,515.288208 
z"/>
<path fill="#8DCBE9" opacity="1.000000" stroke="none" 
	d="
M578.311584,511.935760 
	C578.106995,511.700439 578.251770,511.441223 578.677612,511.109497 
	C578.768616,511.277802 578.669373,511.569458 578.311584,511.935760 
z"/>
<path fill="#72BFE5" opacity="1.000000" stroke="none" 
	d="
M584.431763,504.012482 
	C584.148315,503.818054 584.191956,503.588135 584.516479,503.287231 
	C584.887695,503.457611 584.874817,503.711212 584.431763,504.012482 
z"/>
<path fill="#72BFE5" opacity="1.000000" stroke="none" 
	d="
M602.363892,477.987122 
	C602.219299,477.750977 602.394165,477.439972 602.796631,476.974304 
	C602.910645,477.183899 602.796997,477.548096 602.363892,477.987122 
z"/>
<path fill="#178CC8" opacity="1.000000" stroke="none" 
	d="
M679.020813,365.970795 
	C677.875977,368.672302 676.550354,371.024780 675.053894,373.678955 
	C670.642212,370.752747 667.571350,374.210358 665.278259,376.522552 
	C661.613464,380.217804 658.210205,380.740936 653.003113,380.319702 
	C638.564819,379.151642 624.016846,379.350281 609.512878,378.980865 
	C597.501465,378.674896 585.492676,378.235657 573.479736,378.031494 
	C564.394226,377.877075 555.300476,378.154297 546.217224,377.944519 
	C540.406311,377.810333 535.456787,379.229156 531.385986,383.948334 
	C531.050903,384.007233 531.002625,383.984314 530.688232,383.679901 
	C528.394531,383.248291 526.415161,383.010895 524.435730,383.009979 
	C471.955170,382.985901 419.474640,382.986237 366.994080,382.982391 
	C367.138123,378.545197 370.510681,374.954926 375.060974,373.999146 
	C390.541687,370.747314 406.200012,369.996796 421.976746,369.899139 
	C434.221802,369.823364 446.456116,368.604279 458.704895,368.338074 
	C467.333984,368.150574 476.090485,369.685974 484.592834,368.718475 
	C499.581818,367.012726 514.653992,369.176605 529.685608,365.936615 
	C544.680786,362.704468 560.122925,361.991028 575.633911,363.550262 
	C583.469910,364.337921 591.498169,363.084991 599.442810,362.956299 
	C606.376038,362.844055 613.360840,362.514526 620.239990,363.161652 
	C635.669922,364.613159 650.908325,364.227875 666.250305,361.734222 
	C670.133667,361.103058 674.627014,364.224640 679.020813,365.970795 
z"/>
<path fill="#2094CF" opacity="1.000000" stroke="none" 
	d="
M366.558716,382.986786 
	C419.474640,382.986237 471.955170,382.985901 524.435730,383.009979 
	C526.415161,383.010895 528.394531,383.248291 530.666077,383.664948 
	C475.329285,383.964661 419.700348,383.977356 364.071381,383.967865 
	C362.926453,383.967682 361.781555,383.709625 360.341248,383.285278 
	C362.071655,382.996185 364.097534,382.993683 366.558716,382.986786 
z"/>
</svg>